<svg width="64" height="53" viewBox="0 0 64 53" fill="none" xmlns="http://www.w3.org/2000/svg">
<path d="M45.9 42H5.89999C2.59999 42 0 39.3 0 36.1V5.9C0 2.6 2.69999 0 5.89999 0H57.6C60.9 0 63.5 2.7 63.5 5.9V32.9C63.5 33.8 62.8 34.5 61.9 34.5C61 34.5 60.3 33.8 60.3 32.9V11.8H3.20001V36C3.20001 37.5 4.39999 38.7 5.89999 38.7H45.9C46.8 38.7 47.5 39.4 47.5 40.3C47.5 41.2 46.8 42 45.9 42ZM3.20001 8.60001H60.3V5.9C60.3 4.4 59.1 3.2 57.6 3.2H5.89999C4.39999 3.2 3.20001 4.4 3.20001 5.9V8.60001Z" fill="#532800"/>
<path d="M40.3999 52.9C37.9999 52.9 35.9999 50.9 35.9999 48.5C35.9999 46.1 37.9999 44.1 40.3999 44.1C42.7999 44.1 44.8 46.1 44.8 48.5C44.7 50.9 42.7999 52.9 40.3999 52.9ZM40.3999 47.4C39.7999 47.4 39.3 47.9 39.3 48.5C39.3 49.1 39.7999 49.6 40.3999 49.6C40.9999 49.6 41.4999 49.1 41.4999 48.5C41.4999 47.9 40.9999 47.4 40.3999 47.4ZM61.8999 42H53.3C52.4 42 51.7 41.3 51.7 40.4C51.7 39.5 52.4 38.8 53.3 38.8H61.8999C62.7999 38.8 63.4999 39.5 63.4999 40.4C63.4999 41.3 62.7999 42 61.8999 42ZM27.3999 27.5C24.9999 27.5 22.9999 25.5 22.9999 23.1C22.9999 20.7 24.9999 18.7 27.3999 18.7C29.7999 18.7 31.8 20.7 31.8 23.1C31.8 25.5 29.7999 27.5 27.3999 27.5ZM27.3999 22C26.7999 22 26.3 22.5 26.3 23.1C26.3 23.7 26.7999 24.2 27.3999 24.2C27.9999 24.2 28.4999 23.7 28.4999 23.1C28.4999 22.5 28.0999 22 27.3999 22ZM14.5999 27.5C12.1999 27.5 10.2 25.5 10.2 23.1C10.2 20.7 12.1999 18.7 14.5999 18.7C16.9999 18.7 18.9999 20.7 18.9999 23.1C18.9999 25.5 17.0999 27.5 14.5999 27.5ZM14.5999 22C13.9999 22 13.4999 22.5 13.4999 23.1C13.4999 23.7 13.9999 24.2 14.5999 24.2C15.1999 24.2 15.7 23.7 15.7 23.1C15.7 22.5 15.2999 22 14.5999 22Z" fill="#FECE51"/>
<path d="M40.4 27.5C38 27.5 36 25.5 36 23.1C36 20.7 38 18.7 40.4 18.7C42.8 18.7 44.8 20.7 44.8 23.1C44.8 25.5 42.8 27.5 40.4 27.5ZM40.4 22C39.8 22 39.3 22.5 39.3 23.1C39.3 23.7 39.8 24.2 40.4 24.2C41 24.2 41.5 23.7 41.5 23.1C41.5 22.5 41 22 40.4 22Z" fill="#532800"/>
</svg>
